<?xml version="1.0" encoding="UTF-8" standalone="no"?>
<svg width="24px" height="24px" viewBox="0 0 24 24" version="1.1" xmlns="http://www.w3.org/2000/svg" xmlns:xlink="http://www.w3.org/1999/xlink" xmlns:sketch="http://www.bohemiancoding.com/sketch/ns">
    <!-- Generator: Sketch 3.1.1 (8761) - http://www.bohemiancoding.com/sketch -->
    <title>amtrak-24</title>
    <desc>Created with Sketch.</desc>
    <defs></defs>
    <g id="Page-1" stroke="none" stroke-width="1" fill="none" fill-rule="evenodd" sketch:type="MSPage">
        <g id="amtrak-24" sketch:type="MSArtboardGroup" fill="#000000">
            <g id="Shadow-+-Logo" sketch:type="MSLayerGroup" transform="translate(1.000000, 8.000000)">
                <g id="Logo" sketch:type="MSShapeGroup">
                    <path d="M5.07722397,0.490909091 C1.65948783,0.792677551 0.0040880604,1.59930575 0.0040880604,1.59930575 C0.0040880604,1.59930575 0.933100176,2.17935329 1.40030774,2.46267945 C1.89955389,2.76543462 2.90344932,3.35754972 2.90344932,3.35754972 C2.90344932,3.35754972 4.7506494,2.30203117 8.00051067,1.66356178 C11.2503716,1.02509232 13.9769168,0.920278764 13.9769168,0.920278764 L13.9769168,0.833283026 C13.9769168,0.833283026 13.1256158,0.692759686 12.7304554,0.605007096 C12.3989361,0.531387164 11.7968777,0.349165483 11.7968777,0.349165483 C11.7968777,0.349165483 8.49496013,0.189140643 5.07722397,0.490909091 Z" id="Path-1"></path>
                    <path d="M9.85875471,1.9040625 C6.54736696,2.62131392 4.28914004,4.1236044 4.28914004,4.1236044 C4.28914004,4.1236044 5.33185568,4.69560522 5.87543982,4.97647905 C6.40439801,5.24979556 7.50676709,5.78617543 7.50676709,5.78617543 C7.50676709,5.78617543 9.44853689,3.82477626 12.6464884,2.59127131 C15.8444398,1.35776634 18.5958515,0.86628196 18.5958515,0.86628196 L18.5958515,0.758544034 C18.5958515,0.758544034 17.2729155,0.940030185 16.5725704,0.968059304 C15.8722254,0.9960884 14.9897999,0.976289063 14.9897999,0.976289063 C14.9897999,0.976289063 13.1701425,1.1868111 9.85875471,1.9040625 Z" id="Path-2"></path>
                    <path d="M13.1122626,3.2424929 C10.3433221,4.76750705 9.01327617,6.49585227 9.01327617,6.49585227 C9.01327617,6.49585227 10.3330413,7.07129692 10.9905592,7.3295348 C11.6572494,7.59137502 13.0113845,8.05474432 13.0113845,8.05474432 C13.0113845,8.05474432 13.7866454,5.99982949 16.0305495,3.89550426 C18.2744535,1.79117898 21.9921768,0.113267045 21.9921768,0.113267045 L21.9921768,0.00845348011 C21.9921768,0.00845348011 15.8812029,1.71747869 13.1122626,3.2424929 Z" id="Path-3"></path>
                </g>
            </g>
        </g>
    </g>
</svg>